<svg width="20" height="20" viewBox="0 0 20 20" fill="none" xmlns="http://www.w3.org/2000/svg">
<path fill-rule="evenodd" clip-rule="evenodd" d="M0.833313 4.16667C0.833313 3.72879 0.919587 3.2952 1.08721 2.89067C1.25483 2.48614 1.50051 2.11861 1.81021 1.80905C2.11992 1.4995 2.48758 1.25401 2.89219 1.08659C3.2968 0.919172 3.73043 0.833114 4.16831 0.833333H15.8316C16.2695 0.833114 16.7032 0.919172 17.1078 1.08659C17.5124 1.25401 17.88 1.4995 18.1897 1.80905C18.4995 2.11861 18.7451 2.48614 18.9128 2.89067C19.0804 3.2952 19.1666 3.72879 19.1666 4.16667V15.8333C19.1666 16.7174 18.8155 17.5652 18.1903 18.1904C17.5652 18.8155 16.7174 19.1667 15.8333 19.1667H4.16665C3.28259 19.1667 2.43475 18.8155 1.80962 18.1904C1.1845 17.5652 0.833313 16.7174 0.833313 15.8333V4.16667ZM16.6666 10C16.6666 11.7681 15.9643 13.4638 14.714 14.714C13.4638 15.9643 11.7681 16.6667 9.99998 16.6667C8.23187 16.6667 6.53618 15.9643 5.28593 14.714C4.03569 13.4638 3.33331 11.7681 3.33331 10C3.33331 8.23189 4.03569 6.5362 5.28593 5.28595C6.53618 4.03571 8.23187 3.33333 9.99998 3.33333C11.7681 3.33333 13.4638 4.03571 14.714 5.28595C15.9643 6.5362 16.6666 8.23189 16.6666 10ZM9.99998 11.6667C10.442 11.6667 10.8659 11.4911 11.1785 11.1785C11.4911 10.866 11.6666 10.442 11.6666 10C11.6666 9.55797 11.4911 9.13405 11.1785 8.82149C10.8659 8.50893 10.442 8.33333 9.99998 8.33333C9.55795 8.33333 9.13403 8.50893 8.82147 8.82149C8.50891 9.13405 8.33331 9.55797 8.33331 10C8.33331 10.442 8.50891 10.866 8.82147 11.1785C9.13403 11.4911 9.55795 11.6667 9.99998 11.6667Z" fill="black"/>
</svg>
