<svg width="14" height="14" viewBox="0 0 14 14" fill="none" xmlns="http://www.w3.org/2000/svg">
<path d="M11.6667 0.666668H1.66667C1.22464 0.666668 0.800716 0.842263 0.488155 1.15482C0.175595 1.46738 0 1.89131 0 2.33333V12.3333C0 12.7754 0.175595 13.1993 0.488155 13.5118C0.800716 13.8244 1.22464 14 1.66667 14H11.6667C12.1087 14 12.5326 13.8244 12.8452 13.5118C13.1577 13.1993 13.3333 12.7754 13.3333 12.3333V2.33333C13.3333 1.89131 13.1577 1.46738 12.8452 1.15482C12.5326 0.842263 12.1087 0.666668 11.6667 0.666668ZM4.16667 10.6667V4L10 7.33333L4.16667 10.6667Z" fill="black"/>
</svg>
