<svg width="15" height="16" viewBox="0 0 15 16" fill="none" xmlns="http://www.w3.org/2000/svg">
<path d="M10.8542 5.5L8.50002 3.14583L9.66669 1.95833L10.8542 3.14583L13.7917 0.1875L14.9792 1.375L10.8542 5.5ZM0.166687 15.5V2.16667C0.166687 1.70833 0.33002 1.31583 0.656687 0.989167C0.982798 0.663055 1.37502 0.5 1.83335 0.5H7.66669C7.38891 0.916667 7.18058 1.31611 7.04169 1.69833C6.9028 2.08 6.83335 2.51389 6.83335 3C6.83335 4 7.14919 4.88194 7.78085 5.64583C8.41308 6.40972 9.20835 6.88889 10.1667 7.08333C10.4861 7.125 10.7639 7.14583 11 7.14583C11.2361 7.14583 11.5139 7.125 11.8334 7.08333V15.5L6.00002 13L0.166687 15.5Z" fill="black"/>
</svg>
