<svg width="173" height="70" viewBox="0 0 173 70" fill="none" xmlns="http://www.w3.org/2000/svg">
<path d="M32.5105 18.6404C34.4728 18.6422 36.4127 19.0683 38.2036 19.8907C39.9945 20.7132 41.5963 21.9136 42.9045 23.4136L47 19.6269C44.3785 16.637 40.9392 14.5269 37.1308 13.5721C33.3225 12.6172 29.322 12.8619 25.6512 14.2742C21.9805 15.6865 18.81 18.2008 16.5536 21.489C14.2971 24.7773 13.0595 28.6867 13.0021 32.7073C12.9447 36.7278 14.0703 40.6728 16.2319 44.0273C18.3936 47.3819 21.4909 49.9903 25.1198 51.5122C28.7486 53.034 32.7405 53.3987 36.5745 52.5586C40.4084 51.7185 43.9065 49.7126 46.6122 46.8027L42.6097 42.9045C41.0153 44.6146 39.0326 45.8928 36.8389 46.6249C34.6452 47.357 32.3087 47.5202 30.0385 47.0998C27.7682 46.6795 25.635 45.6888 23.8293 44.2162C22.0236 42.7436 20.6018 40.8351 19.6911 38.6612C18.7803 36.4873 18.4089 34.1158 18.6101 31.7588C18.8114 29.4017 19.5789 27.1325 20.8441 25.1541C22.1094 23.1756 23.8329 21.5495 25.8607 20.4212C27.8884 19.2928 30.1571 18.6974 32.4641 18.6881L32.5105 18.6404Z" fill="black"/>
<path d="M14 13.9093L9.9594 10C6.8029 13.0152 4.2982 16.5992 2.589 20.5463C0.879901 24.4933 0 28.7256 0 33C0 37.2744 0.879901 41.5067 2.589 45.4537C4.2982 49.4008 6.8029 52.9848 9.9594 56L14 52.0907C11.3683 49.5944 9.2789 46.6216 7.8528 43.3445C6.4268 40.0675 5.6925 36.5514 5.6925 33C5.6925 29.4486 6.4268 25.9325 7.8528 22.6555C9.2789 19.3784 11.3683 16.4056 14 13.9093Z" fill="black"/>
<path d="M52 6.47532C46.4907 2.26022 39.8335 -0.00857564 33 2.4359e-05V5.67592C38.6385 5.67052 44.1326 7.53512 48.6877 11L52 6.47532Z" fill="black"/>
<path d="M33 60.4006V66C39.3922 66.0072 45.6477 64.1435 51 60.6372L47.8559 56C43.433 58.879 38.2722 60.4078 33 60.4006Z" fill="black"/>
<path d="M33 53.4849C28.6698 53.482 24.445 52.187 20.8976 49.7751C17.3501 47.3632 14.6513 43.9508 13.1663 40L8 42.3303C9.9455 47.2367 13.3755 51.4556 17.8382 54.4312C22.3009 57.4069 27.5869 58.9997 33 59V53.4849Z" fill="black"/>
<path d="M12.517 32C12.8524 26.7395 15.1558 21.8049 18.9597 18.1974C22.7636 14.59 27.7832 12.5798 33 12.5747V7C26.3193 6.9998 19.8943 9.595 15.0546 14.2485C10.2149 18.9021 7.331 25.2577 7 32H12.517Z" fill="black"/>
<path d="M49.44 43.168C48.272 43.168 47.216 42.968 46.272 42.568C45.344 42.168 44.608 41.592 44.064 40.84C43.52 40.088 43.24 39.2 43.224 38.176H46.824C46.872 38.864 47.112 39.408 47.544 39.808C47.992 40.208 48.6 40.408 49.368 40.408C50.152 40.408 50.768 40.224 51.216 39.856C51.664 39.472 51.888 38.976 51.888 38.368C51.888 37.872 51.736 37.464 51.432 37.144C51.128 36.824 50.744 36.576 50.28 36.4C49.832 36.208 49.208 36 48.408 35.776C47.32 35.456 46.432 35.144 45.744 34.84C45.072 34.52 44.488 34.048 43.992 33.424C43.512 32.784 43.272 31.936 43.272 30.88C43.272 29.888 43.52 29.024 44.016 28.288C44.512 27.552 45.208 26.992 46.104 26.608C47 26.208 48.024 26.008 49.176 26.008C50.904 26.008 52.304 26.432 53.376 27.28C54.464 28.112 55.064 29.28 55.176 30.784H51.48C51.448 30.208 51.2 29.736 50.736 29.368C50.288 28.984 49.688 28.792 48.936 28.792C48.28 28.792 47.752 28.96 47.352 29.296C46.968 29.632 46.776 30.12 46.776 30.76C46.776 31.208 46.92 31.584 47.208 31.888C47.512 32.176 47.88 32.416 48.312 32.608C48.76 32.784 49.384 32.992 50.184 33.232C51.272 33.552 52.16 33.872 52.848 34.192C53.536 34.512 54.128 34.992 54.624 35.632C55.12 36.272 55.368 37.112 55.368 38.152C55.368 39.048 55.136 39.88 54.672 40.648C54.208 41.416 53.528 42.032 52.632 42.496C51.736 42.944 50.672 43.168 49.44 43.168ZM64.185 43.216C62.905 43.216 61.753 42.936 60.729 42.376C59.705 41.8 58.897 40.992 58.305 39.952C57.729 38.912 57.441 37.712 57.441 36.352C57.441 34.992 57.737 33.792 58.329 32.752C58.937 31.712 59.761 30.912 60.801 30.352C61.841 29.776 63.001 29.488 64.281 29.488C65.561 29.488 66.721 29.776 67.761 30.352C68.801 30.912 69.617 31.712 70.209 32.752C70.817 33.792 71.121 34.992 71.121 36.352C71.121 37.712 70.809 38.912 70.185 39.952C69.577 40.992 68.745 41.8 67.689 42.376C66.649 42.936 65.481 43.216 64.185 43.216ZM64.185 40.288C64.793 40.288 65.361 40.144 65.889 39.856C66.433 39.552 66.865 39.104 67.185 38.512C67.505 37.92 67.665 37.2 67.665 36.352C67.665 35.088 67.329 34.12 66.657 33.448C66.001 32.76 65.193 32.416 64.233 32.416C63.273 32.416 62.465 32.76 61.809 33.448C61.169 34.12 60.849 35.088 60.849 36.352C60.849 37.616 61.161 38.592 61.785 39.28C62.425 39.952 63.225 40.288 64.185 40.288ZM80.9537 29.512C82.5377 29.512 83.8177 30.016 84.7937 31.024C85.7697 32.016 86.2577 33.408 86.2577 35.2V43H82.8977V35.656C82.8977 34.6 82.6337 33.792 82.1057 33.232C81.5777 32.656 80.8577 32.368 79.9457 32.368C79.0177 32.368 78.2817 32.656 77.7377 33.232C77.2097 33.792 76.9457 34.6 76.9457 35.656V43H73.5857V29.704H76.9457V31.36C77.3937 30.784 77.9617 30.336 78.6497 30.016C79.3537 29.68 80.1217 29.512 80.9537 29.512ZM94.6609 29.488C95.6529 29.488 96.5249 29.688 97.2769 30.088C98.0289 30.472 98.6209 30.976 99.0529 31.6V29.704H102.437V43.096C102.437 44.328 102.189 45.424 101.693 46.384C101.197 47.36 100.453 48.128 99.4609 48.688C98.4689 49.264 97.2689 49.552 95.8609 49.552C93.9729 49.552 92.4209 49.112 91.2049 48.232C90.0049 47.352 89.3249 46.152 89.1649 44.632H92.5009C92.6769 45.24 93.0529 45.72 93.6289 46.072C94.2209 46.44 94.9329 46.624 95.7649 46.624C96.7409 46.624 97.5329 46.328 98.1409 45.736C98.7489 45.16 99.0529 44.28 99.0529 43.096V41.032C98.6209 41.656 98.0209 42.176 97.2529 42.592C96.5009 43.008 95.6369 43.216 94.6609 43.216C93.5409 43.216 92.5169 42.928 91.5889 42.352C90.6609 41.776 89.9249 40.968 89.3809 39.928C88.8529 38.872 88.5889 37.664 88.5889 36.304C88.5889 34.96 88.8529 33.768 89.3809 32.728C89.9249 31.688 90.6529 30.888 91.5649 30.328C92.4929 29.768 93.5249 29.488 94.6609 29.488ZM99.0529 36.352C99.0529 35.536 98.8929 34.84 98.5729 34.264C98.2529 33.672 97.8209 33.224 97.2769 32.92C96.7329 32.6 96.1489 32.44 95.5249 32.44C94.9009 32.44 94.3249 32.592 93.7969 32.896C93.2689 33.2 92.8369 33.648 92.5009 34.24C92.1809 34.816 92.0209 35.504 92.0209 36.304C92.0209 37.104 92.1809 37.808 92.5009 38.416C92.8369 39.008 93.2689 39.464 93.7969 39.784C94.3409 40.104 94.9169 40.264 95.5249 40.264C96.1489 40.264 96.7329 40.112 97.2769 39.808C97.8209 39.488 98.2529 39.04 98.5729 38.464C98.8929 37.872 99.0529 37.168 99.0529 36.352ZM110.807 43.216C109.719 43.216 108.743 43.024 107.879 42.64C107.015 42.24 106.327 41.704 105.815 41.032C105.319 40.36 105.047 39.616 104.999 38.8H108.383C108.447 39.312 108.695 39.736 109.127 40.072C109.575 40.408 110.127 40.576 110.783 40.576C111.423 40.576 111.919 40.448 112.271 40.192C112.639 39.936 112.823 39.608 112.823 39.208C112.823 38.776 112.599 38.456 112.151 38.248C111.719 38.024 111.023 37.784 110.062 37.528C109.071 37.288 108.255 37.04 107.615 36.784C106.991 36.528 106.447 36.136 105.983 35.608C105.535 35.08 105.311 34.368 105.311 33.472C105.311 32.736 105.519 32.064 105.935 31.456C106.367 30.848 106.975 30.368 107.759 30.016C108.559 29.664 109.495 29.488 110.567 29.488C112.151 29.488 113.415 29.888 114.359 30.688C115.303 31.472 115.823 32.536 115.919 33.88H112.703C112.655 33.352 112.431 32.936 112.031 32.632C111.647 32.312 111.127 32.152 110.471 32.152C109.863 32.152 109.391 32.264 109.055 32.488C108.735 32.712 108.575 33.024 108.575 33.424C108.575 33.872 108.799 34.216 109.247 34.456C109.695 34.68 110.391 34.912 111.335 35.152C112.295 35.392 113.087 35.64 113.711 35.896C114.335 36.152 114.871 36.552 115.319 37.096C115.783 37.624 116.023 38.328 116.039 39.208C116.039 39.976 115.823 40.664 115.391 41.272C114.975 41.88 114.367 42.36 113.567 42.712C112.783 43.048 111.863 43.216 110.807 43.216ZM131.157 36.064C131.157 36.544 131.125 36.976 131.061 37.36H121.341C121.421 38.32 121.757 39.072 122.349 39.616C122.941 40.16 123.669 40.432 124.533 40.432C125.781 40.432 126.669 39.896 127.197 38.824H130.821C130.437 40.104 129.701 41.16 128.613 41.992C127.525 42.808 126.189 43.216 124.605 43.216C123.325 43.216 122.173 42.936 121.149 42.376C120.141 41.8 119.349 40.992 118.773 39.952C118.213 38.912 117.933 37.712 117.933 36.352C117.933 34.976 118.213 33.768 118.773 32.728C119.333 31.688 120.117 30.888 121.125 30.328C122.133 29.768 123.293 29.488 124.605 29.488C125.869 29.488 126.997 29.76 127.989 30.304C128.997 30.848 129.773 31.624 130.317 32.632C130.877 33.624 131.157 34.768 131.157 36.064ZM127.677 35.104C127.661 34.24 127.349 33.552 126.741 33.04C126.133 32.512 125.389 32.248 124.509 32.248C123.677 32.248 122.973 32.504 122.397 33.016C121.837 33.512 121.493 34.208 121.365 35.104H127.677ZM146.161 29.704V43H142.777V41.32C142.345 41.896 141.777 42.352 141.073 42.688C140.385 43.008 139.633 43.168 138.817 43.168C137.777 43.168 136.857 42.952 136.057 42.52C135.257 42.072 134.625 41.424 134.161 40.576C133.713 39.712 133.489 38.688 133.489 37.504V29.704H136.849V37.024C136.849 38.08 137.113 38.896 137.641 39.472C138.169 40.032 138.889 40.312 139.801 40.312C140.729 40.312 141.457 40.032 141.985 39.472C142.513 38.896 142.777 38.08 142.777 37.024V29.704H146.161ZM165.988 29.512C167.62 29.512 168.932 30.016 169.924 31.024C170.932 32.016 171.436 33.408 171.436 35.2V43H168.076V35.656C168.076 34.616 167.812 33.824 167.284 33.28C166.756 32.72 166.036 32.44 165.124 32.44C164.212 32.44 163.484 32.72 162.94 33.28C162.412 33.824 162.148 34.616 162.148 35.656V43H158.788V35.656C158.788 34.616 158.524 33.824 157.996 33.28C157.468 32.72 156.748 32.44 155.836 32.44C154.908 32.44 154.172 32.72 153.628 33.28C153.1 33.824 152.836 34.616 152.836 35.656V43H149.476V29.704H152.836V31.312C153.268 30.752 153.82 30.312 154.492 29.992C155.18 29.672 155.932 29.512 156.748 29.512C157.788 29.512 158.716 29.736 159.532 30.184C160.348 30.616 160.98 31.24 161.428 32.056C161.86 31.288 162.484 30.672 163.3 30.208C164.132 29.744 165.028 29.512 165.988 29.512Z" fill="black"/>
<path d="M116.84 62.1C116.547 62.1 116.3 62 116.1 61.8C115.913 61.6 115.82 61.3533 115.82 61.06C115.82 60.7667 115.913 60.5267 116.1 60.34C116.3 60.14 116.547 60.04 116.84 60.04C117.12 60.04 117.353 60.14 117.54 60.34C117.74 60.5267 117.84 60.7667 117.84 61.06C117.84 61.3533 117.74 61.6 117.54 61.8C117.353 62 117.12 62.1 116.84 62.1ZM119.593 56.54C119.593 55.4067 119.819 54.42 120.273 53.58C120.726 52.7267 121.353 52.0733 122.153 51.62C122.953 51.1533 123.866 50.92 124.893 50.92C126.239 50.92 127.346 51.2533 128.213 51.92C129.093 52.5867 129.659 53.4933 129.913 54.64H128.413C128.226 53.8533 127.819 53.24 127.193 52.8C126.579 52.3467 125.813 52.12 124.893 52.12C124.159 52.12 123.499 52.2867 122.913 52.62C122.326 52.9533 121.859 53.4533 121.513 54.12C121.179 54.7733 121.013 55.58 121.013 56.54C121.013 57.5 121.179 58.3133 121.513 58.98C121.859 59.6467 122.326 60.1467 122.913 60.48C123.499 60.8133 124.159 60.98 124.893 60.98C125.813 60.98 126.579 60.76 127.193 60.32C127.819 59.8667 128.226 59.24 128.413 58.44H129.913C129.659 59.56 129.093 60.46 128.213 61.14C127.333 61.82 126.226 62.16 124.893 62.16C123.866 62.16 122.953 61.9333 122.153 61.48C121.353 61.0133 120.726 60.36 120.273 59.52C119.819 58.6667 119.593 57.6733 119.593 56.54ZM137.278 62.16C136.252 62.16 135.325 61.9333 134.498 61.48C133.685 61.0133 133.038 60.36 132.558 59.52C132.092 58.6667 131.858 57.6733 131.858 56.54C131.858 55.4067 132.098 54.42 132.578 53.58C133.058 52.7267 133.712 52.0733 134.538 51.62C135.365 51.1533 136.292 50.92 137.318 50.92C138.345 50.92 139.272 51.1533 140.098 51.62C140.938 52.0733 141.592 52.7267 142.058 53.58C142.538 54.42 142.778 55.4067 142.778 56.54C142.778 57.66 142.538 58.6467 142.058 59.5C141.578 60.3533 140.918 61.0133 140.078 61.48C139.238 61.9333 138.305 62.16 137.278 62.16ZM137.278 60.94C137.998 60.94 138.665 60.78 139.278 60.46C139.892 60.1267 140.385 59.6333 140.758 58.98C141.145 58.3133 141.338 57.5 141.338 56.54C141.338 55.58 141.152 54.7733 140.778 54.12C140.405 53.4533 139.912 52.96 139.298 52.64C138.685 52.3067 138.018 52.14 137.298 52.14C136.578 52.14 135.912 52.3067 135.298 52.64C134.685 52.96 134.192 53.4533 133.818 54.12C133.458 54.7733 133.278 55.58 133.278 56.54C133.278 57.5 133.458 58.3133 133.818 58.98C134.192 59.6333 134.678 60.1267 135.278 60.46C135.892 60.78 136.558 60.94 137.278 60.94ZM158.33 50.88C159.61 50.88 160.65 51.2867 161.45 52.1C162.264 52.9 162.67 54.0667 162.67 55.6V62H161.29V55.76C161.29 54.5733 161.004 53.6667 160.43 53.04C159.857 52.4133 159.077 52.1 158.09 52.1C157.064 52.1 156.244 52.44 155.63 53.12C155.017 53.8 154.71 54.7867 154.71 56.08V62H153.33V55.76C153.33 54.5733 153.044 53.6667 152.47 53.04C151.897 52.4133 151.11 52.1 150.11 52.1C149.084 52.1 148.264 52.44 147.65 53.12C147.037 53.8 146.73 54.7867 146.73 56.08V62H145.33V51.08H146.73V52.96C147.077 52.28 147.57 51.7667 148.21 51.42C148.85 51.06 149.564 50.88 150.35 50.88C151.297 50.88 152.124 51.1067 152.83 51.56C153.55 52.0133 154.07 52.68 154.39 53.56C154.684 52.6933 155.184 52.0333 155.89 51.58C156.61 51.1133 157.424 50.88 158.33 50.88Z" fill="black"/>
</svg>
