<svg width="20" height="16" viewBox="0 0 20 16" fill="none" xmlns="http://www.w3.org/2000/svg">
<path d="M19.1666 6.28333C19.158 6.20678 19.1412 6.13136 19.1166 6.05833V5.98333C19.0766 5.89765 19.0231 5.81889 18.9583 5.75L13.9583 0.75C13.8894 0.68518 13.8107 0.631734 13.725 0.591667H13.65C13.5653 0.543118 13.4718 0.511954 13.375 0.5H6.66665C6.00361 0.5 5.36772 0.763392 4.89888 1.23223C4.43004 1.70107 4.16665 2.33696 4.16665 3V3.83333H3.33331C2.67027 3.83333 2.03439 4.09673 1.56555 4.56557C1.09671 5.03441 0.833313 5.67029 0.833313 6.33333V13C0.833313 13.663 1.09671 14.2989 1.56555 14.7678C2.03439 15.2366 2.67027 15.5 3.33331 15.5H13.3333C13.9964 15.5 14.6322 15.2366 15.1011 14.7678C15.5699 14.2989 15.8333 13.663 15.8333 13V12.1667H16.6666C17.3297 12.1667 17.9656 11.9033 18.4344 11.4344C18.9033 10.9656 19.1666 10.3297 19.1666 9.66667V6.28333ZM14.1666 3.34167L16.325 5.5H15C14.779 5.5 14.567 5.4122 14.4107 5.25592C14.2544 5.09964 14.1666 4.88768 14.1666 4.66667V3.34167ZM14.1666 13C14.1666 13.221 14.0788 13.433 13.9226 13.5893C13.7663 13.7455 13.5543 13.8333 13.3333 13.8333H3.33331C3.1123 13.8333 2.90034 13.7455 2.74406 13.5893C2.58778 13.433 2.49998 13.221 2.49998 13V6.33333C2.49998 6.11232 2.58778 5.90036 2.74406 5.74408C2.90034 5.5878 3.1123 5.5 3.33331 5.5H4.16665V9.66667C4.16665 10.3297 4.43004 10.9656 4.89888 11.4344C5.36772 11.9033 6.00361 12.1667 6.66665 12.1667H14.1666V13ZM17.5 9.66667C17.5 9.88768 17.4122 10.0996 17.2559 10.2559C17.0996 10.4122 16.8877 10.5 16.6666 10.5H6.66665C6.44563 10.5 6.23367 10.4122 6.07739 10.2559C5.92111 10.0996 5.83331 9.88768 5.83331 9.66667V3C5.83331 2.77899 5.92111 2.56702 6.07739 2.41074C6.23367 2.25446 6.44563 2.16667 6.66665 2.16667H12.5V4.66667C12.5 5.32971 12.7634 5.96559 13.2322 6.43443C13.7011 6.90327 14.3369 7.16667 15 7.16667H17.5V9.66667Z" fill="black"/>
</svg>
